<svg class="svg-icon" style="width: 1em; height: 1em;vertical-align: middle;fill: currentColor;overflow: hidden;" viewBox="0 0 1024 1024" version="1.1" xmlns="http://www.w3.org/2000/svg"><path d="M788.31 884.8v-845A27.76 27.76 0 0 0 760.54 12H164a27.76 27.76 0 0 0-27.78 27.78v845a27.76 27.76 0 0 0 27.78 27.8h596.54a27.76 27.76 0 0 0 27.77-27.78zM732.76 857H191.82V67.56h540.94z"  /><path d="M860 111.42a27.76 27.76 0 0 0-27.78 27.78v817.24H263.46a27.78 27.78 0 1 0 0 55.56H860a27.76 27.76 0 0 0 27.78-27.78v-845a27.76 27.76 0 0 0-27.78-27.8z"  /><path d="M288.31 490.08h348a27.78 27.78 0 1 0 0-55.56h-348a27.78 27.78 0 0 0 0 55.56zM288.31 291.24h348a27.78 27.78 0 1 0 0-55.56h-348a27.78 27.78 0 0 0 0 55.56zM288.31 688.89h348a27.78 27.78 0 0 0 0-55.56h-348a27.78 27.78 0 0 0 0 55.56z"  /></svg>